<svg width="10" height="6" viewBox="0 0 10 6" fill="none" xmlns="http://www.w3.org/2000/svg">
<path d="M1.94158 0.484504C1.65071 0.229839 1.20847 0.259189 0.953803 0.550058C0.699139 0.840927 0.728488 1.28317 1.01936 1.53783L1.94158 0.484504ZM5.12832 4.20497L4.6672 4.73163L5.12836 5.13539L5.58947 4.73159L5.12832 4.20497ZM9.23667 1.53779C9.52752 1.2831 9.55683 0.840859 9.30214 0.550012C9.04745 0.259165 8.60521 0.229854 8.31436 0.484545L9.23667 1.53779ZM1.01936 1.53783L4.6672 4.73163L5.58943 3.6783L1.94158 0.484504L1.01936 1.53783ZM5.58947 4.73159L9.23667 1.53779L8.31436 0.484545L4.66716 3.67834L5.58947 4.73159Z" fill="white"/>
</svg>
